<svg xmlns="http://www.w3.org/2000/svg" width="800" height="400" viewBox="0 0 800 400">
  <rect width="800" height="400" fill="#f5f5f5"/>
  
  <!-- Title -->
  <text x="400" y="40" font-family="Arial" font-size="18" font-weight="bold" text-anchor="middle">YourBench Automatically Generates Challenging MMLU Replicas</text>
  
  <!-- Chart background -->
  <rect x="50" y="70" width="700" height="280" fill="white" stroke="#ccc" stroke-width="1"/>
  
  <!-- Y-axis -->
  <line x1="100" y1="70" x2="100" y2="350" stroke="#333" stroke-width="2"/>
  <text x="60" y="210" font-family="Arial" font-size="14" text-anchor="middle" transform="rotate(-90, 60, 210)">Accuracy (%)</text>
  
  <!-- X-axis -->
  <line x1="100" y1="350" x2="750" y2="350" stroke="#333" stroke-width="2"/>
  <text x="425" y="380" font-family="Arial" font-size="14" text-anchor="middle">Models</text>
  
  <!-- Bars (simplified representation) -->
  <!-- Model 1 -->
  <rect x="150" y="250" width="30" height="100" fill="#ccc"/>
  <rect x="190" y="280" width="30" height="70" fill="#f1c232"/>
  
  <!-- Model 2 -->
  <rect x="250" y="200" width="30" height="150" fill="#ccc"/>
  <rect x="290" y="240" width="30" height="110" fill="#f1c232"/>
  
  <!-- Model 3 -->
  <rect x="350" y="180" width="30" height="170" fill="#ccc"/>
  <rect x="390" y="220" width="30" height="130" fill="#f1c232"/>
  
  <!-- Model 4 -->
  <rect x="450" y="150" width="30" height="200" fill="#ccc"/>
  <rect x="490" y="190" width="30" height="160" fill="#f1c232"/>
  
  <!-- Model 5 -->
  <rect x="550" y="120" width="30" height="230" fill="#ccc"/>
  <rect x="590" y="160" width="30" height="190" fill="#f1c232"/>
  
  <!-- Model 6 -->
  <rect x="650" y="100" width="30" height="250" fill="#ccc"/>
  <rect x="690" y="140" width="30" height="210" fill="#f1c232"/>
  
  <!-- Legend -->
  <rect x="550" y="80" width="15" height="15" fill="#ccc"/>
  <text x="575" y="93" font-family="Arial" font-size="12">Original MMLU</text>
  
  <rect x="550" y="105" width="15" height="15" fill="#f1c232"/>
  <text x="575" y="118" font-family="Arial" font-size="12">YourBench Generated</text>
</svg>
